<svg xmlns="http://www.w3.org/2000/svg" width="1920" height="1080" viewBox="0 0 1920 1080">
  <g shape-rendering="geometricPrecision">
<circle cx="260" cy="250" r="210" fill="none" stroke="#21D9ED" stroke-width="18"/>
<circle cx="260" cy="250" r="150" fill="none" stroke="#FF209C" stroke-width="10"/>
<circle cx="260" cy="250" r="95" fill="none" stroke="#FFFFFF" stroke-width="5"/>
<path d="M 60 250 A 200 200 0 0 1 260 50" fill="none" stroke="#000000" stroke-width="28"/>
<circle cx="1650" cy="820" r="220" fill="none" stroke="#FF209C" stroke-width="18"/>
<circle cx="1650" cy="820" r="150" fill="none" stroke="#21D9ED" stroke-width="10"/>
<circle cx="1650" cy="820" r="95" fill="none" stroke="#000000" stroke-width="5"/>
<path d="M 1450 820 A 200 200 0 0 0 1650 1020" fill="none" stroke="#FFFFFF" stroke-width="28"/>
<line x1="360" y1="125" x2="960" y2="125" stroke="#FF209C" stroke-width="5"/>
<line x1="960" y1="955" x2="1560" y2="955" stroke="#21D9ED" stroke-width="5"/>
<rect x="420" y="104" width="18" height="18" fill="#000000"/>
<rect x="450" y="104" width="18" height="18" fill="#21D9ED"/>
<rect x="480" y="104" width="18" height="18" fill="#FF209C"/>
<rect x="1422" y="934" width="18" height="18" fill="#FFFFFF"/>
<rect x="1452" y="934" width="18" height="18" fill="#21D9ED"/>
<rect x="1482" y="934" width="18" height="18" fill="#FF209C"/>
<polygon points="1180.0,152.0 1185.8,217.5 1216.0,230.0 1185.8,242.5 1180.0,308.0 1174.2,242.5 1144.0,230.0 1174.2,217.5" fill="#FF209C" opacity="1"/>
<polygon points="690.0,784.0 694.2,831.0 716.0,840.0 694.2,849.0 690.0,896.0 685.8,849.0 664.0,840.0 685.8,831.0" fill="#21D9ED" opacity="1"/>
<circle cx="1260" cy="100" r="4" fill="#21D9ED" opacity="0.6"/>
<circle cx="1280" cy="100" r="4" fill="#21D9ED" opacity="0.6"/>
<circle cx="1300" cy="100" r="4" fill="#21D9ED" opacity="0.6"/>
<circle cx="1320" cy="100" r="4" fill="#21D9ED" opacity="0.6"/>
<circle cx="1340" cy="100" r="4" fill="#21D9ED" opacity="0.6"/>
<circle cx="1360" cy="100" r="4" fill="#21D9ED" opacity="0.6"/>
<circle cx="1380" cy="100" r="4" fill="#21D9ED" opacity="0.6"/>
<circle cx="1260" cy="120" r="4" fill="#21D9ED" opacity="0.6"/>
<circle cx="1280" cy="120" r="4" fill="#21D9ED" opacity="0.6"/>
<circle cx="1300" cy="120" r="4" fill="#21D9ED" opacity="0.6"/>
<circle cx="1320" cy="120" r="4" fill="#21D9ED" opacity="0.6"/>
<circle cx="1340" cy="120" r="4" fill="#21D9ED" opacity="0.6"/>
<circle cx="1360" cy="120" r="4" fill="#21D9ED" opacity="0.6"/>
<circle cx="1380" cy="120" r="4" fill="#21D9ED" opacity="0.6"/>
<circle cx="1260" cy="140" r="4" fill="#21D9ED" opacity="0.6"/>
<circle cx="1280" cy="140" r="4" fill="#21D9ED" opacity="0.6"/>
<circle cx="1300" cy="140" r="4" fill="#21D9ED" opacity="0.6"/>
<circle cx="1320" cy="140" r="4" fill="#21D9ED" opacity="0.6"/>
<circle cx="1340" cy="140" r="4" fill="#21D9ED" opacity="0.6"/>
<circle cx="1360" cy="140" r="4" fill="#21D9ED" opacity="0.6"/>
<circle cx="1380" cy="140" r="4" fill="#21D9ED" opacity="0.6"/>
<circle cx="1260" cy="160" r="4" fill="#21D9ED" opacity="0.6"/>
<circle cx="1280" cy="160" r="4" fill="#21D9ED" opacity="0.6"/>
<circle cx="1300" cy="160" r="4" fill="#21D9ED" opacity="0.6"/>
<circle cx="1320" cy="160" r="4" fill="#21D9ED" opacity="0.6"/>
<circle cx="1340" cy="160" r="4" fill="#21D9ED" opacity="0.6"/>
<circle cx="1360" cy="160" r="4" fill="#21D9ED" opacity="0.6"/>
<circle cx="1380" cy="160" r="4" fill="#21D9ED" opacity="0.6"/>
<circle cx="510" cy="900" r="4" fill="#FF209C" opacity="0.6"/>
<circle cx="530" cy="900" r="4" fill="#FF209C" opacity="0.6"/>
<circle cx="550" cy="900" r="4" fill="#FF209C" opacity="0.6"/>
<circle cx="570" cy="900" r="4" fill="#FF209C" opacity="0.6"/>
<circle cx="590" cy="900" r="4" fill="#FF209C" opacity="0.6"/>
<circle cx="610" cy="900" r="4" fill="#FF209C" opacity="0.6"/>
<circle cx="630" cy="900" r="4" fill="#FF209C" opacity="0.6"/>
<circle cx="510" cy="920" r="4" fill="#FF209C" opacity="0.6"/>
<circle cx="530" cy="920" r="4" fill="#FF209C" opacity="0.6"/>
<circle cx="550" cy="920" r="4" fill="#FF209C" opacity="0.6"/>
<circle cx="570" cy="920" r="4" fill="#FF209C" opacity="0.6"/>
<circle cx="590" cy="920" r="4" fill="#FF209C" opacity="0.6"/>
<circle cx="610" cy="920" r="4" fill="#FF209C" opacity="0.6"/>
<circle cx="630" cy="920" r="4" fill="#FF209C" opacity="0.6"/>
<circle cx="510" cy="940" r="4" fill="#FF209C" opacity="0.6"/>
<circle cx="530" cy="940" r="4" fill="#FF209C" opacity="0.6"/>
<circle cx="550" cy="940" r="4" fill="#FF209C" opacity="0.6"/>
<circle cx="570" cy="940" r="4" fill="#FF209C" opacity="0.6"/>
<circle cx="590" cy="940" r="4" fill="#FF209C" opacity="0.6"/>
<circle cx="610" cy="940" r="4" fill="#FF209C" opacity="0.6"/>
<circle cx="630" cy="940" r="4" fill="#FF209C" opacity="0.6"/>
<circle cx="510" cy="960" r="4" fill="#FF209C" opacity="0.6"/>
<circle cx="530" cy="960" r="4" fill="#FF209C" opacity="0.6"/>
<circle cx="550" cy="960" r="4" fill="#FF209C" opacity="0.6"/>
<circle cx="570" cy="960" r="4" fill="#FF209C" opacity="0.6"/>
<circle cx="590" cy="960" r="4" fill="#FF209C" opacity="0.6"/>
<circle cx="610" cy="960" r="4" fill="#FF209C" opacity="0.6"/>
<circle cx="630" cy="960" r="4" fill="#FF209C" opacity="0.6"/>
  </g>
</svg>
