<svg xmlns="http://www.w3.org/2000/svg" width="1920" height="1080" viewBox="0 0 1920 1080">
  <g shape-rendering="geometricPrecision">
<ellipse cx="250" cy="820" rx="250" ry="110" fill="none" stroke="#FF209C" stroke-width="10" transform="rotate(-24 250 820)"/>
<ellipse cx="250" cy="820" rx="190" ry="75" fill="none" stroke="#21D9ED" stroke-width="7" transform="rotate(-24 250 820)"/>
<ellipse cx="1670" cy="260" rx="250" ry="110" fill="none" stroke="#21D9ED" stroke-width="10" transform="rotate(-24 1670 260)"/>
<ellipse cx="1670" cy="260" rx="190" ry="75" fill="none" stroke="#FF209C" stroke-width="7" transform="rotate(-24 1670 260)"/>
<rect x="70" y="80" width="420" height="24" fill="#000000"/>
<rect x="1430" y="976" width="420" height="24" fill="#FFFFFF"/>
<polygon points="0,0 240,0 0,240" fill="#21D9ED" opacity="0.75"/>
<polygon points="1920,1080 1680,1080 1920,840" fill="#FF209C" opacity="0.75"/>
<circle cx="70" cy="140" r="4" fill="#FF209C" opacity="0.7"/>
<circle cx="90" cy="140" r="4" fill="#FF209C" opacity="0.7"/>
<circle cx="110" cy="140" r="4" fill="#FF209C" opacity="0.7"/>
<circle cx="130" cy="140" r="4" fill="#FF209C" opacity="0.7"/>
<circle cx="150" cy="140" r="4" fill="#FF209C" opacity="0.7"/>
<circle cx="170" cy="140" r="4" fill="#FF209C" opacity="0.7"/>
<circle cx="190" cy="140" r="4" fill="#FF209C" opacity="0.7"/>
<circle cx="210" cy="140" r="4" fill="#FF209C" opacity="0.7"/>
<circle cx="70" cy="160" r="4" fill="#FF209C" opacity="0.7"/>
<circle cx="90" cy="160" r="4" fill="#FF209C" opacity="0.7"/>
<circle cx="110" cy="160" r="4" fill="#FF209C" opacity="0.7"/>
<circle cx="130" cy="160" r="4" fill="#FF209C" opacity="0.7"/>
<circle cx="150" cy="160" r="4" fill="#FF209C" opacity="0.7"/>
<circle cx="170" cy="160" r="4" fill="#FF209C" opacity="0.7"/>
<circle cx="190" cy="160" r="4" fill="#FF209C" opacity="0.7"/>
<circle cx="210" cy="160" r="4" fill="#FF209C" opacity="0.7"/>
<circle cx="70" cy="180" r="4" fill="#FF209C" opacity="0.7"/>
<circle cx="90" cy="180" r="4" fill="#FF209C" opacity="0.7"/>
<circle cx="110" cy="180" r="4" fill="#FF209C" opacity="0.7"/>
<circle cx="130" cy="180" r="4" fill="#FF209C" opacity="0.7"/>
<circle cx="150" cy="180" r="4" fill="#FF209C" opacity="0.7"/>
<circle cx="170" cy="180" r="4" fill="#FF209C" opacity="0.7"/>
<circle cx="190" cy="180" r="4" fill="#FF209C" opacity="0.7"/>
<circle cx="210" cy="180" r="4" fill="#FF209C" opacity="0.7"/>
<circle cx="70" cy="200" r="4" fill="#FF209C" opacity="0.7"/>
<circle cx="90" cy="200" r="4" fill="#FF209C" opacity="0.7"/>
<circle cx="110" cy="200" r="4" fill="#FF209C" opacity="0.7"/>
<circle cx="130" cy="200" r="4" fill="#FF209C" opacity="0.7"/>
<circle cx="150" cy="200" r="4" fill="#FF209C" opacity="0.7"/>
<circle cx="170" cy="200" r="4" fill="#FF209C" opacity="0.7"/>
<circle cx="190" cy="200" r="4" fill="#FF209C" opacity="0.7"/>
<circle cx="210" cy="200" r="4" fill="#FF209C" opacity="0.7"/>
<circle cx="70" cy="220" r="4" fill="#FF209C" opacity="0.7"/>
<circle cx="90" cy="220" r="4" fill="#FF209C" opacity="0.7"/>
<circle cx="110" cy="220" r="4" fill="#FF209C" opacity="0.7"/>
<circle cx="130" cy="220" r="4" fill="#FF209C" opacity="0.7"/>
<circle cx="150" cy="220" r="4" fill="#FF209C" opacity="0.7"/>
<circle cx="170" cy="220" r="4" fill="#FF209C" opacity="0.7"/>
<circle cx="190" cy="220" r="4" fill="#FF209C" opacity="0.7"/>
<circle cx="210" cy="220" r="4" fill="#FF209C" opacity="0.7"/>
<circle cx="1690" cy="840" r="4" fill="#21D9ED" opacity="0.7"/>
<circle cx="1710" cy="840" r="4" fill="#21D9ED" opacity="0.7"/>
<circle cx="1730" cy="840" r="4" fill="#21D9ED" opacity="0.7"/>
<circle cx="1750" cy="840" r="4" fill="#21D9ED" opacity="0.7"/>
<circle cx="1770" cy="840" r="4" fill="#21D9ED" opacity="0.7"/>
<circle cx="1790" cy="840" r="4" fill="#21D9ED" opacity="0.7"/>
<circle cx="1810" cy="840" r="4" fill="#21D9ED" opacity="0.7"/>
<circle cx="1830" cy="840" r="4" fill="#21D9ED" opacity="0.7"/>
<circle cx="1690" cy="860" r="4" fill="#21D9ED" opacity="0.7"/>
<circle cx="1710" cy="860" r="4" fill="#21D9ED" opacity="0.7"/>
<circle cx="1730" cy="860" r="4" fill="#21D9ED" opacity="0.7"/>
<circle cx="1750" cy="860" r="4" fill="#21D9ED" opacity="0.7"/>
<circle cx="1770" cy="860" r="4" fill="#21D9ED" opacity="0.7"/>
<circle cx="1790" cy="860" r="4" fill="#21D9ED" opacity="0.7"/>
<circle cx="1810" cy="860" r="4" fill="#21D9ED" opacity="0.7"/>
<circle cx="1830" cy="860" r="4" fill="#21D9ED" opacity="0.7"/>
<circle cx="1690" cy="880" r="4" fill="#21D9ED" opacity="0.7"/>
<circle cx="1710" cy="880" r="4" fill="#21D9ED" opacity="0.7"/>
<circle cx="1730" cy="880" r="4" fill="#21D9ED" opacity="0.7"/>
<circle cx="1750" cy="880" r="4" fill="#21D9ED" opacity="0.7"/>
<circle cx="1770" cy="880" r="4" fill="#21D9ED" opacity="0.7"/>
<circle cx="1790" cy="880" r="4" fill="#21D9ED" opacity="0.7"/>
<circle cx="1810" cy="880" r="4" fill="#21D9ED" opacity="0.7"/>
<circle cx="1830" cy="880" r="4" fill="#21D9ED" opacity="0.7"/>
<circle cx="1690" cy="900" r="4" fill="#21D9ED" opacity="0.7"/>
<circle cx="1710" cy="900" r="4" fill="#21D9ED" opacity="0.7"/>
<circle cx="1730" cy="900" r="4" fill="#21D9ED" opacity="0.7"/>
<circle cx="1750" cy="900" r="4" fill="#21D9ED" opacity="0.7"/>
<circle cx="1770" cy="900" r="4" fill="#21D9ED" opacity="0.7"/>
<circle cx="1790" cy="900" r="4" fill="#21D9ED" opacity="0.7"/>
<circle cx="1810" cy="900" r="4" fill="#21D9ED" opacity="0.7"/>
<circle cx="1830" cy="900" r="4" fill="#21D9ED" opacity="0.7"/>
<circle cx="1690" cy="920" r="4" fill="#21D9ED" opacity="0.7"/>
<circle cx="1710" cy="920" r="4" fill="#21D9ED" opacity="0.7"/>
<circle cx="1730" cy="920" r="4" fill="#21D9ED" opacity="0.7"/>
<circle cx="1750" cy="920" r="4" fill="#21D9ED" opacity="0.7"/>
<circle cx="1770" cy="920" r="4" fill="#21D9ED" opacity="0.7"/>
<circle cx="1790" cy="920" r="4" fill="#21D9ED" opacity="0.7"/>
<circle cx="1810" cy="920" r="4" fill="#21D9ED" opacity="0.7"/>
<circle cx="1830" cy="920" r="4" fill="#21D9ED" opacity="0.7"/>
<line x1="1180" y1="120" x2="1180" y2="330" stroke="#21D9ED" stroke-width="2" opacity="0.25"/>
<line x1="1210" y1="120" x2="1210" y2="330" stroke="#21D9ED" stroke-width="2" opacity="0.25"/>
<line x1="1240" y1="120" x2="1240" y2="330" stroke="#21D9ED" stroke-width="2" opacity="0.25"/>
<line x1="1270" y1="120" x2="1270" y2="330" stroke="#21D9ED" stroke-width="2" opacity="0.25"/>
<line x1="1300" y1="120" x2="1300" y2="330" stroke="#21D9ED" stroke-width="2" opacity="0.25"/>
<line x1="1330" y1="120" x2="1330" y2="330" stroke="#21D9ED" stroke-width="2" opacity="0.25"/>
<line x1="1360" y1="120" x2="1360" y2="330" stroke="#21D9ED" stroke-width="2" opacity="0.25"/>
<line x1="1390" y1="120" x2="1390" y2="330" stroke="#21D9ED" stroke-width="2" opacity="0.25"/>
<line x1="1420" y1="120" x2="1420" y2="330" stroke="#21D9ED" stroke-width="2" opacity="0.25"/>
<line x1="1450" y1="120" x2="1450" y2="330" stroke="#21D9ED" stroke-width="2" opacity="0.25"/>
<line x1="1480" y1="120" x2="1480" y2="330" stroke="#21D9ED" stroke-width="2" opacity="0.25"/>
<line x1="1510" y1="120" x2="1510" y2="330" stroke="#21D9ED" stroke-width="2" opacity="0.25"/>
<line x1="1540" y1="120" x2="1540" y2="330" stroke="#21D9ED" stroke-width="2" opacity="0.25"/>
<line x1="1570" y1="120" x2="1570" y2="330" stroke="#21D9ED" stroke-width="2" opacity="0.25"/>
<line x1="1180" y1="120" x2="1570" y2="120" stroke="#21D9ED" stroke-width="2" opacity="0.25"/>
<line x1="1180" y1="150" x2="1570" y2="150" stroke="#21D9ED" stroke-width="2" opacity="0.25"/>
<line x1="1180" y1="180" x2="1570" y2="180" stroke="#21D9ED" stroke-width="2" opacity="0.25"/>
<line x1="1180" y1="210" x2="1570" y2="210" stroke="#21D9ED" stroke-width="2" opacity="0.25"/>
<line x1="1180" y1="240" x2="1570" y2="240" stroke="#21D9ED" stroke-width="2" opacity="0.25"/>
<line x1="1180" y1="270" x2="1570" y2="270" stroke="#21D9ED" stroke-width="2" opacity="0.25"/>
<line x1="1180" y1="300" x2="1570" y2="300" stroke="#21D9ED" stroke-width="2" opacity="0.25"/>
<line x1="1180" y1="330" x2="1570" y2="330" stroke="#21D9ED" stroke-width="2" opacity="0.25"/>
<line x1="350" y1="750" x2="350" y2="960" stroke="#FF209C" stroke-width="2" opacity="0.25"/>
<line x1="380" y1="750" x2="380" y2="960" stroke="#FF209C" stroke-width="2" opacity="0.25"/>
<line x1="410" y1="750" x2="410" y2="960" stroke="#FF209C" stroke-width="2" opacity="0.25"/>
<line x1="440" y1="750" x2="440" y2="960" stroke="#FF209C" stroke-width="2" opacity="0.25"/>
<line x1="470" y1="750" x2="470" y2="960" stroke="#FF209C" stroke-width="2" opacity="0.25"/>
<line x1="500" y1="750" x2="500" y2="960" stroke="#FF209C" stroke-width="2" opacity="0.25"/>
<line x1="530" y1="750" x2="530" y2="960" stroke="#FF209C" stroke-width="2" opacity="0.25"/>
<line x1="560" y1="750" x2="560" y2="960" stroke="#FF209C" stroke-width="2" opacity="0.25"/>
<line x1="590" y1="750" x2="590" y2="960" stroke="#FF209C" stroke-width="2" opacity="0.25"/>
<line x1="620" y1="750" x2="620" y2="960" stroke="#FF209C" stroke-width="2" opacity="0.25"/>
<line x1="650" y1="750" x2="650" y2="960" stroke="#FF209C" stroke-width="2" opacity="0.25"/>
<line x1="680" y1="750" x2="680" y2="960" stroke="#FF209C" stroke-width="2" opacity="0.25"/>
<line x1="710" y1="750" x2="710" y2="960" stroke="#FF209C" stroke-width="2" opacity="0.25"/>
<line x1="740" y1="750" x2="740" y2="960" stroke="#FF209C" stroke-width="2" opacity="0.25"/>
<line x1="350" y1="750" x2="740" y2="750" stroke="#FF209C" stroke-width="2" opacity="0.25"/>
<line x1="350" y1="780" x2="740" y2="780" stroke="#FF209C" stroke-width="2" opacity="0.25"/>
<line x1="350" y1="810" x2="740" y2="810" stroke="#FF209C" stroke-width="2" opacity="0.25"/>
<line x1="350" y1="840" x2="740" y2="840" stroke="#FF209C" stroke-width="2" opacity="0.25"/>
<line x1="350" y1="870" x2="740" y2="870" stroke="#FF209C" stroke-width="2" opacity="0.25"/>
<line x1="350" y1="900" x2="740" y2="900" stroke="#FF209C" stroke-width="2" opacity="0.25"/>
<line x1="350" y1="930" x2="740" y2="930" stroke="#FF209C" stroke-width="2" opacity="0.25"/>
<line x1="350" y1="960" x2="740" y2="960" stroke="#FF209C" stroke-width="2" opacity="0.25"/>
<polygon points="620.0,150.0 624.8,208.8 650.0,220.0 624.8,231.2 620.0,290.0 615.2,231.2 590.0,220.0 615.2,208.8" fill="#FFFFFF" opacity="1"/>
<polygon points="1300.0,790.0 1304.8,848.8 1330.0,860.0 1304.8,871.2 1300.0,930.0 1295.2,871.2 1270.0,860.0 1295.2,848.8" fill="#000000" opacity="1"/>
<line x1="540" y1="130" x2="950" y2="130" stroke="#FF209C" stroke-width="5"/>
<line x1="970" y1="950" x2="1380" y2="950" stroke="#21D9ED" stroke-width="5"/>
  </g>
</svg>
